<svg width="21" height="14" fill="none" xmlns="http://www.w3.org/2000/svg"><path fill-rule="evenodd" clip-rule="evenodd" d="M19.438 13.5h-4.5a1.128 1.128 0 0 1-1.126-1.125c0-.619.507-1.125 1.126-1.125h4.5c.618 0 1.125.506 1.125 1.125s-.507 1.125-1.125 1.125Zm1.125-12.375c0 .619-.507 1.125-1.125 1.125h-18A1.128 1.128 0 0 1 .313 1.125C.313.506.819 0 1.438 0h18c.618 0 1.125.506 1.125 1.125Zm-1.125 6.75H8.188A1.128 1.128 0 0 1 7.062 6.75c0-.619.507-1.125 1.125-1.125h11.25c.62 0 1.125.506 1.125 1.125s-.506 1.125-1.125 1.125Z" fill="#E5BE5A"/></svg>