<svg width="40" height="41" fill="none" xmlns="http://www.w3.org/2000/svg"><g clip-path="url(#a)"><path d="m39.82 32.757-.199-.6c-.472-1.401-2.017-2.863-3.437-3.248l-5.255-1.436c-1.425-.387-3.458.134-4.5 1.177l-1.903 1.902a20.174 20.174 0 0 1-14.197-14.2l1.902-1.901c1.043-1.043 1.564-3.073 1.176-4.498l-1.433-5.258c-.388-1.422-1.852-2.968-3.25-3.434l-.6-.202C6.721.593 4.722 1.064 3.68 2.107L.835 4.954C.327 5.46.002 6.906.002 6.911a33.6 33.6 0 0 0 9.832 24.125 33.61 33.61 0 0 0 24.05 9.834c.047 0 1.535-.32 2.043-.825l2.845-2.845c1.043-1.043 1.514-3.041 1.048-4.443Z" fill="#E5BE5A"/></g><defs><clipPath id="a"><path fill="#fff" transform="translate(0 .879)" d="M0 0h40v39.993H0z"/></clipPath></defs></svg>