<svg width="80" height="47" fill="none" xmlns="http://www.w3.org/2000/svg"><path fill-rule="evenodd" clip-rule="evenodd" d="M44.483 15.658c-.027.084-.047 3.937-.045 8.56l.004 8.408h3.309l.057-4.919.057-4.919 1.87 1.965c1.028 1.081 1.928 1.98 2 1.997.07.017.975-.863 2.01-1.956l1.88-1.987.029 4.998.03 4.998 1.681-.032 1.682-.031.03-8.607c.016-4.733-.01-8.606-.058-8.606s-1.704 1.61-3.68 3.58l-3.593 3.578-3.607-3.59c-2.15-2.14-3.626-3.528-3.656-3.437ZM70.8 16.805c.104 1.786.133 1.904.461 1.904.313 0 .367-.602.206-2.301-.071-.754-.078-.767-.404-.767h-.33l.067 1.164Zm-1.237-.97c-.148.038-.192.125-.15.299.033.135.175.795.315 1.467.26 1.245.355 1.382.772 1.12.19-.121-.391-2.975-.602-2.953a2.99 2.99 0 0 0-.335.067Zm2.62.914c-.362 2-.361 1.921-.024 1.985.337.065.288.184.638-1.543.293-1.444.294-1.436-.103-1.436-.325 0-.333.014-.51.994ZM30.07 24.272c-2.293 4.56-4.168 8.318-4.168 8.35 0 .138 2.94.06 3.053-.081.108-.135 4.477-8.272 5.074-9.45l.283-.558 1.204 2.32 2.615 5.046 1.411 2.727 1.623.032c.893.017 1.624-.002 1.624-.043 0-.153-8.39-16.629-8.469-16.631-.045-.001-1.958 3.728-4.25 8.288Zm43.52-7.632c-.937 2.472-.893 2.251-.458 2.313.255.036 1.214-1.939 1.253-2.584.034-.545-.563-.342-.795.271ZM0 20.744v4.668h3.075c4.544 0 5.26.297 5.252 2.182-.006 1.379-.569 1.935-2.045 2.021l-.976.057v2.954l1.198-.039c2.112-.069 3.014-.456 3.787-1.626 1.597-2.414 1.175-5.664-.891-6.87l-.503-.293.362-.411c1.975-2.24 1.11-6.163-1.55-7.029-.473-.154-1.225-.197-4.143-.235L0 16.076v4.668Zm13.72 3.617.03 8.265 5.333.03 5.335.03v-3.64h-7.531V16.095h-3.196l.029 8.266Zm54.422-8.125c-.143.07-.24.18-.213.248.424 1.083 1.193 2.564 1.33 2.563.506-.004.492-.167-.13-1.57-.337-.757-.637-1.373-.668-1.37a1.916 1.916 0 0 0-.319.13Zm-1.376.638-.267.205.84 1.175c.914 1.279.971 1.328 1.287 1.097.178-.13-1.333-2.713-1.57-2.685a3.152 3.152 0 0 0-.29.208Zm7.673.997c-.776 1.212-.83 1.52-.262 1.52.288 0 1.726-2.428 1.525-2.574-.367-.268-.473-.18-1.263 1.054Zm-8.766-.193c-.255.28-.214.348.89 1.476.979 1.002.946.983 1.26.746.21-.158.192-.194-.398-.82a67.66 67.66 0 0 1-1.046-1.139c-.497-.56-.452-.544-.706-.263Zm9.82.832c-.97 1.043-.976 1.052-.74 1.25.323.27.267.309 1.346-.905.904-1.018.95-1.093.748-1.24-.315-.23-.294-.243-1.353.895Zm-10.735.079c-.282.31-.25.35 1.021 1.301 1.127.842 1.144.85 1.363.634.122-.12.2-.236.171-.257-.028-.02-.333-.268-.678-.55-1.754-1.432-1.655-1.373-1.877-1.128Zm11.676.63c-.588.468-1.07.91-1.07.981 0 .544 1.007.04 2.671-1.338.06-.05-.342-.494-.449-.494-.045 0-.563.383-1.152.85Zm-69.727.004c1.043.416 1.255 2.217.362 3.07l-.351.335-2.019.035-2.018.036.026-1.797c.014-.988.027-1.809.028-1.824.015-.133 3.602-.002 3.972.145Zm70.456.83c-1.406.793-1.37.76-1.128 1.027.178.195 2.695-.921 2.695-1.195 0-.606-.243-.58-1.567.168Zm-13.357-.27c-.124.27-.092.3.865.836 1.75.98 1.649.945 1.877.642l.199-.263-1.307-.747c-1.488-.85-1.463-.843-1.634-.468Zm14.182 1.08c-1.789.71-1.687.644-1.485.951l.18.274 1.223-.44 1.365-.493c.206-.077-.066-.632-.303-.618-.1.006-.54.153-.98.327Zm-14.777.179c-.148.387-.287.293 1.317.883l1.365.503.163-.325c.2-.397.303-.323-1.132-.811a80.96 80.96 0 0 1-1.397-.485c-.147-.057-.228.004-.316.235ZM78.16 22.08c-1.517.327-1.378.264-1.295.582.079.3.168.302 1.694.041 1.137-.194 1.14-.196 1.14-.523 0-.43-.01-.43-1.54-.1Zm-15.36.22c-.097.384-.073.396 1.498.716 1.389.284 1.591.255 1.509-.214-.024-.134-2.257-.756-2.85-.793-.045-.003-.117.128-.157.29Zm14.218 1.123v.284h2.967v-.568h-2.967v.284Zm-14.405-.104c-.364.363-.083.597.799.664.486.038 1.18.092 1.54.122l.656.053v-.325c0-.324-.004-.326-.884-.4a71.764 71.764 0 0 1-1.455-.137c-.314-.034-.609-.024-.656.023Zm14.52 1.074c0 .297.044.307 1.568.377l1.284.058v-.666h-1.426c-1.358 0-1.427.011-1.427.23Zm-12.438.06c-.094.02-.62.07-1.17.11l-.997.074v.692l.998-.076c2.023-.155 2.082-.17 2.082-.538 0-.33-.259-.404-.913-.262Zm12.4.694c-.321.319-.053.45 1.314.638.764.105 1.402.179 1.416.164.015-.015.06-.159.101-.32l.074-.293-1.085-.133c-1.234-.15-1.711-.165-1.82-.056Zm-13.027.477-1.37.302.04.34c.054.461-.033.454 1.408.116 1.814-.424 1.68-.365 1.588-.712-.107-.396-.085-.395-1.666-.046Zm12.82.413-.03.298c-.013.153 2.568.93 2.685.808.349-.364.159-.518-1.098-.896-1.432-.43-1.534-.445-1.558-.21Zm-12.478.765c-.69.322-1.27.595-1.288.605-.018.011.03.155.105.32.162.356.15.359 1.675-.347 1.31-.604 1.19-.51 1.099-.876-.099-.39-.126-.384-1.59.298Zm12.154.082a.968.968 0 0 0-.116.335c0 .104 2.302 1.26 2.509 1.26.078 0 .382-.583.319-.613l-.717-.341c-1.804-.861-1.866-.88-1.995-.641Zm-11.583.868c-.628.398-1.187.74-1.243.76-.082.028.067.45.224.632.057.067 2.559-1.467 2.559-1.568 0-.6-.389-.555-1.54.176Zm11.03.056c-.082.132-.133.249-.113.26.02.013.536.391 1.146.842 1.282.946 1.153.896 1.387.54l.184-.28-1.126-.8c-1.253-.89-1.268-.896-1.478-.562Zm-9.833.362c-.22.201-.702.627-1.07.945-.603.522-.655.603-.536.824.194.361.266.327 1.436-.677 1.058-.908 1.07-.924.894-1.192-.226-.344-.242-.342-.724.1Zm9.25.32-.277.23 1.047 1.042 1.046 1.042.25-.25.252-.249-1.02-1.022-1.02-1.023-.278.23Zm-9.135 1.082c-.76.879-.926 1.133-.833 1.28.215.34.46.188 1.384-.853l.92-1.037-.26-.244-.261-.244-.95 1.098Zm8.363-.451-.252.175.645.926c1.077 1.548.97 1.448 1.286 1.21l.273-.205-.786-1.147c-.433-.63-.815-1.144-.85-1.14-.036.003-.178.084-.316.18Zm-7.386 1.113c-.932 1.33-.94 1.35-.593 1.576l.28.184.815-1.26c.448-.692.799-1.272.78-1.287-.434-.357-.516-.307-1.282.787Zm6.49-.57c-.207.15.826 2.691 1.086 2.674.565-.037.56-.245-.04-1.558-.601-1.317-.67-1.39-1.046-1.117Zm-5.062.207c-.054.14-.29.732-.525 1.314-.428 1.06-.428 1.216-.008 1.29.182.031.31-.186.757-1.286l.538-1.323-.277-.125c-.367-.166-.37-.165-.485.13Zm4.213.079c-.358.092-.362.04.105 1.576.383 1.257.398 1.283.685 1.212.422-.106.421-.052.007-1.446-.435-1.466-.419-1.439-.797-1.342Zm-3.508 1.388c-.232.973-.297 1.427-.21 1.485.143.097.637.117.637.026 0-.033.133-.651.295-1.372.163-.721.278-1.329.257-1.35-.022-.021-.175-.073-.342-.114l-.302-.076-.335 1.401Zm2.41-1.19c-.211.041-.236.109-.193.524.028.262.085.886.128 1.386l.079.909.37.035c.427.041.415.1.257-1.231-.16-1.352-.226-1.704-.319-1.686l-.322.063Zm-1.255 1.427c-.114 1.47-.092 1.557.384 1.56.23.002.257-.053.258-.537 0-.297.034-.962.074-1.477l.073-.938h-.68l-.109 1.392ZM0 38.136c0 .076 13.236.114 39.479.114s39.479-.038 39.479-.114c0-.075-13.236-.113-39.479-.113S0 38.06 0 38.136Zm55.717 3.924c-2.545 1.262-1.046 5.131 1.72 4.44.313-.078.983-.6.983-.765 0-.241-.369-.23-.635.02-.696.651-2.067.35-2.61-.575-1.02-1.74 1.035-3.766 2.608-2.571.42.32.795.24.57-.12-.426-.68-1.71-.89-2.636-.43Zm17.07-.186c-1.14.37-1.789 1.658-1.48 2.94.673 2.793 4.672 2.052 4.433-.821-.128-1.537-1.566-2.569-2.953-2.12Zm-70.39.076c0 .118 1.251 4.383 1.317 4.489.178.287.503.09.626-.378.111-.423.688-2.466.874-3.094.042-.142.24.397.54 1.477.592 2.125.582 2.1.853 2.1.123 0 .25-.09.283-.2 1.223-4.13 1.3-4.487.961-4.438-.221.032-.31.258-.767 1.935l-.516 1.898-.526-1.898c-.72-2.6-.812-2.613-1.475-.229-.266.956-.517 1.8-.558 1.874-.04.074-.304-.705-.584-1.733-.47-1.717-.532-1.868-.77-1.868-.142 0-.259.03-.259.065Zm7.758 2.264v2.33h1.483c1.408 0 1.484-.012 1.484-.228 0-.213-.076-.227-1.255-.227H10.61v-1.704h1.255c1.18 0 1.256-.014 1.256-.227 0-.214-.076-.227-1.255-.227H10.61V42.34h1.255c1.18 0 1.256-.014 1.256-.227 0-.216-.076-.228-1.484-.228h-1.483v2.33Zm5.249 0v2.33h1.087c1.976 0 2.862-.97 1.89-2.072l-.33-.375.274-.317c.892-1.032.137-1.895-1.657-1.895h-1.264v2.33Zm13.134-2.08c-.056.144-.467 1.142-.913 2.217-.899 2.166-.914 2.224-.569 2.172.168-.025.305-.195.443-.548l.2-.51 1.195-.033 1.195-.032.239.572c.177.424.299.572.473.572.323 0 .341.066-.668-2.398-.96-2.347-1.3-2.775-1.595-2.012Zm4.488-.103c-.195.507.013 4.456.234 4.456.22 0 .23-.086.26-2.074l.03-2.073h1.254c1.176 0 1.252-.014 1.252-.227 0-.283-2.922-.361-3.03-.082Zm5.11 2.155.03 2.3h1.483c1.32 0 1.486-.02 1.52-.198.035-.18-.083-.199-1.225-.199H38.68v-1.704h1.198c1.122 0 1.198-.014 1.198-.227s-.076-.227-1.198-.227H38.68v-1.583l1.226-.033c1.06-.028 1.23-.059 1.263-.23.035-.182-.097-.2-1.513-.2h-1.55l.03 2.301Zm5.222.029c0 2.253.008 2.329.229 2.329.212 0 .228-.076.228-1.08v-1.08h2.852v1.08c0 1.004.016 1.08.229 1.08.22 0 .228-.076.228-2.33 0-2.253-.008-2.329-.228-2.329-.212 0-.229.076-.229 1.023v1.023h-2.852v-1.023c0-.947-.017-1.023-.228-1.023-.221 0-.229.076-.229 2.33Zm5.84-2.13c.031.157.192.21.78.255l.74.057v2.045c0 1.969.008 2.045.228 2.045.219 0 .23-.086.26-2.074l.03-2.073h.74c.663 0 .739-.024.739-.227 0-.218-.076-.228-1.777-.228-1.63 0-1.774.017-1.74.2Zm11.047.025c0 .207.073.23.742.23h.742v2.102c0 2.026.008 2.102.228 2.102s.228-.076.228-2.097V42.35l.77-.033c.594-.026.77-.073.77-.204 0-.143-.283-.176-1.74-.202-1.681-.03-1.74-.024-1.74.199Zm5.591 2.105v2.329h1.088c1.99 0 2.935-1.117 1.824-2.157l-.28-.262.282-.333c.883-1.045.08-1.907-1.778-1.907h-1.136v2.33Zm8.436-1.79c.761.387 1.097 1.23.906 2.274-.302 1.656-2.594 1.938-3.252.4-.727-1.698.813-3.452 2.346-2.674Zm-56.424.093c.736.733.133 1.413-1.254 1.413h-.734V42.34h.905c.67 0 .95.046 1.084.178Zm50.497.13c.55.696.087 1.21-1.143 1.265l-.91.042V42.34h.905c.848 0 .92.02 1.148.307ZM29.836 44.72c.07.221.029.232-.916.232-.894 0-.983-.02-.916-.199.04-.11.26-.671.488-1.25l.414-1.05.428 1.017c.236.56.461 1.123.502 1.25Zm-12.023-.215c1.047.558.252 1.583-1.228 1.583h-.725v-1.704h.863c.475 0 .965.054 1.09.12Zm50.508.056c.26.18.355.852.164 1.15-.15.235-.7.377-1.458.377h-.734v-1.704h.887c.619 0 .964.053 1.141.177Z" fill="#E5BE5A"/><path d="M4.443 7.738H2.626V6.84h1.817c.343 0 .619-.069.828-.206.214-.137.368-.327.463-.57a2.2 2.2 0 0 0 .149-.835c0-.286-.05-.554-.149-.806a1.287 1.287 0 0 0-.463-.605c-.21-.156-.485-.234-.828-.234h-1.6V11h-1.05V2.682h2.65c.537 0 .99.109 1.36.326.37.217.649.518.84.902.194.381.29.817.29 1.309 0 .533-.096.988-.29 1.365-.191.377-.47.665-.84.863-.37.194-.823.29-1.36.29Zm5.747-4.319L7.916 11H6.842l2.68-8.318h.674l-.006.737ZM12.03 11 9.756 3.419l-.011-.737h.68L13.103 11H12.03Zm0-3.08v.903H8.02v-.902h4.01Zm4.393-.913h-.811v-.703h.777c.323 0 .584-.059.782-.177.198-.118.343-.282.434-.491a1.8 1.8 0 0 0 .138-.726 1.66 1.66 0 0 0-.155-.72 1.167 1.167 0 0 0-.462-.525c-.21-.134-.482-.2-.817-.2-.248 0-.473.06-.675.183a1.283 1.283 0 0 0-.48.497c-.114.209-.17.45-.17.725h-1.052c0-.354.061-.672.183-.954a2.14 2.14 0 0 1 .514-.726c.221-.201.474-.356.76-.462.29-.107.596-.16.92-.16.377 0 .718.051 1.022.154.305.1.566.248.783.446.22.198.388.443.503.737.118.293.177.634.177 1.022 0 .286-.057.554-.172.806-.11.251-.272.472-.485.662-.21.19-.46.341-.749.452-.29.106-.61.16-.965.16Zm-.811-.486h.81c.39 0 .736.048 1.04.143.31.095.57.234.783.417.214.183.375.41.486.68.114.266.171.573.171.92 0 .388-.065.733-.194 1.034a2.11 2.11 0 0 1-.537.765c-.232.21-.506.368-.823.474a3.237 3.237 0 0 1-1.936.023 2.477 2.477 0 0 1-.8-.434 2.2 2.2 0 0 1-.571-.754c-.141-.305-.212-.67-.212-1.097h1.051c0 .278.06.533.177.766.122.232.29.418.503.56.213.136.463.205.749.205.327 0 .605-.065.834-.194a1.31 1.31 0 0 0 .525-.543c.122-.232.183-.493.183-.783 0-.255-.032-.476-.097-.662a1.109 1.109 0 0 0-.28-.469 1.096 1.096 0 0 0-.457-.268 1.951 1.951 0 0 0-.628-.092h-.777v-.69Zm7.34 1.217h-1.816V6.84h1.817c.343 0 .619-.069.828-.206.213-.137.368-.327.463-.57a2.2 2.2 0 0 0 .148-.835c0-.286-.05-.554-.148-.806a1.286 1.286 0 0 0-.463-.605c-.21-.156-.485-.234-.828-.234h-1.6V11h-1.051V2.682h2.65c.538 0 .991.109 1.36.326.37.217.65.518.84.902.194.381.292.817.292 1.309 0 .533-.098.988-.292 1.365-.19.377-.47.665-.84.863-.369.194-.822.29-1.36.29ZM28.7 3.419 26.426 11h-1.074l2.68-8.318h.674l-.006.737ZM30.54 11l-2.274-7.581-.012-.737h.68L31.614 11h-1.075Zm0-3.08v.903h-4.011v-.902h4.01Zm6.506-5.238v.903H33.78V11h-1.052V2.682h4.32Zm-3.49 3.388h1.89c.515 0 .95.103 1.303.308.358.202.629.486.812.851.186.366.28.795.28 1.286 0 .366-.054.7-.16 1.005a2.23 2.23 0 0 1-.463.789c-.202.22-.452.392-.749.514a2.752 2.752 0 0 1-1.022.177h-2.72V2.682h1.052v7.421h1.668c.32 0 .577-.074.771-.223.198-.152.343-.35.434-.594.092-.244.137-.505.137-.783s-.045-.533-.137-.765a1.185 1.185 0 0 0-.434-.554c-.194-.141-.451-.212-.771-.212h-1.891V6.07Zm11.043.051v1.446c0 .586-.065 1.102-.194 1.548a3.03 3.03 0 0 1-.555 1.108c-.243.297-.537.52-.88.668a2.89 2.89 0 0 1-1.159.223 2.83 2.83 0 0 1-1.137-.223 2.366 2.366 0 0 1-.885-.668 3.182 3.182 0 0 1-.577-1.108c-.134-.446-.2-.962-.2-1.548V6.12c0-.586.066-1.1.2-1.542.133-.446.323-.817.57-1.114.249-.297.544-.52.886-.669a2.768 2.768 0 0 1 1.137-.228c.43 0 .817.076 1.16.228.347.149.64.372.88.669.244.297.43.668.56 1.114.13.442.194.956.194 1.542Zm-1.04 1.446V6.11c0-.457-.038-.85-.114-1.177a2.275 2.275 0 0 0-.337-.811 1.358 1.358 0 0 0-.549-.463 1.743 1.743 0 0 0-.754-.154c-.27 0-.514.051-.731.154a1.41 1.41 0 0 0-.548.463c-.153.21-.27.48-.355.81-.08.328-.12.72-.12 1.178v1.457c0 .46.04.856.12 1.188.084.327.202.598.355.811.156.21.342.366.56.468.217.1.458.15.725.15a1.8 1.8 0 0 0 .754-.15c.221-.102.404-.258.549-.468.148-.213.259-.484.33-.811.077-.332.115-.728.115-1.188Zm5.182-4.885V11H47.7V2.682h1.04Zm2.188 0v.903h-5.41v-.903h5.41Zm3.468.737L52.123 11h-1.074l2.68-8.318h.673l-.005.737ZM56.236 11l-2.274-7.581-.011-.737h.68L57.31 11h-1.075Zm0-3.08v.903h-4.01v-.902h4.01Zm6.73-1.662v.897H59.36v-.897h3.605Zm-3.462-3.576V11h-1.051V2.682h1.05Zm4.393 0V11h-1.051V2.682h1.051Zm6.324 3.576v.897h-3.605v-.897h3.605ZM66.76 2.682V11h-1.051V2.682h1.051Zm4.393 0V11h-1.05V2.682h1.05Zm7.222 3.44v1.445c0 .586-.065 1.102-.195 1.548a3.03 3.03 0 0 1-.554 1.108c-.244.297-.537.52-.88.668a2.89 2.89 0 0 1-1.16.223 2.83 2.83 0 0 1-1.136-.223 2.367 2.367 0 0 1-.886-.668 3.182 3.182 0 0 1-.577-1.108c-.133-.446-.2-.962-.2-1.548V6.12c0-.586.067-1.1.2-1.542a3.11 3.11 0 0 1 .572-1.114c.247-.297.542-.52.885-.669a2.768 2.768 0 0 1 1.137-.228c.43 0 .817.076 1.16.228.346.149.64.372.88.669.243.297.43.668.56 1.114.129.442.194.956.194 1.542Zm-1.04 1.445V6.11c0-.457-.038-.85-.115-1.177a2.274 2.274 0 0 0-.337-.811 1.358 1.358 0 0 0-.548-.463 1.743 1.743 0 0 0-.754-.154c-.27 0-.514.051-.731.154a1.41 1.41 0 0 0-.549.463c-.152.21-.27.48-.354.81-.08.328-.12.72-.12 1.178v1.457c0 .46.04.856.12 1.188.084.327.202.598.354.811.156.21.343.366.56.468.217.1.459.15.726.15a1.8 1.8 0 0 0 .754-.15c.22-.102.403-.258.548-.468a2.23 2.23 0 0 0 .331-.811c.077-.332.115-.728.115-1.188Z" fill="#E5BE5A"/></svg>