<svg width="36" height="35" fill="none" xmlns="http://www.w3.org/2000/svg"><path d="M34.48 1.589c-.902-.867-1.983-1.3-3.242-1.3H4.596c-1.26 0-2.34.433-3.243 1.3C.451 2.455 0 3.494 0 4.704v25.591c0 1.21.45 2.249 1.353 3.115.902.867 1.983 1.3 3.243 1.3h26.641c1.26 0 2.34-.433 3.243-1.3.902-.866 1.353-1.905 1.353-3.114V4.704c0-1.21-.45-2.248-1.353-3.115ZM12.866 12.693c1.408-1.307 3.099-1.961 5.074-1.961 1.99 0 3.69.654 5.097 1.96 1.408 1.308 2.111 2.888 2.111 4.74 0 1.853-.703 3.433-2.11 4.74-1.408 1.307-3.107 1.961-5.098 1.961-1.975 0-3.666-.654-5.074-1.961-1.407-1.307-2.111-2.887-2.111-4.74 0-1.852.704-3.432 2.111-4.74Zm18.908 16.684c0 .388-.14.713-.42.975a1.42 1.42 0 0 1-1.003.392H5.413c-.405 0-.743-.131-1.015-.392a1.296 1.296 0 0 1-.409-.975V14.855h3.29a9.3 9.3 0 0 0-.467 2.936c0 2.869 1.089 5.315 3.266 7.34 2.178 2.024 4.798 3.036 7.862 3.036 2.022 0 3.888-.463 5.6-1.39 1.71-.926 3.063-2.185 4.059-3.776a9.636 9.636 0 0 0 1.493-5.21 9.303 9.303 0 0 0-.467-2.936h3.15v14.522Zm0-20.012c0 .433-.155.799-.467 1.098-.31.299-.691.448-1.143.448h-4.059c-.45 0-.832-.15-1.143-.448a1.464 1.464 0 0 1-.466-1.098V5.667c0-.418.155-.78.466-1.087a1.567 1.567 0 0 1 1.143-.459h4.06c.45 0 .831.153 1.142.46.312.306.467.668.467 1.086v3.698Z" fill="#E5BE5A"/></svg>