<svg width="52" height="29" fill="none" xmlns="http://www.w3.org/2000/svg"><path d="M51.028 25.689a3.302 3.302 0 0 0-.172-.317c-.878-1.52-2.558-3.386-5.036-5.598l-.052-.05-.027-.025-.026-.026h-.027c-1.125-1.03-1.837-1.722-2.135-2.077-.546-.676-.668-1.36-.37-2.052.21-.524 1.002-1.629 2.373-3.318.721-.895 1.292-1.612 1.714-2.153 3.041-3.884 4.36-6.366 3.955-7.447l-.157-.252c-.105-.152-.378-.291-.817-.418-.44-.127-1.002-.148-1.688-.063l-7.594.05c-.123-.042-.299-.038-.527.013l-.343.076-.132.063-.105.077c-.088.05-.185.139-.29.265a1.722 1.722 0 0 0-.264.444 40.66 40.66 0 0 1-2.821 5.699 53.71 53.71 0 0 1-1.794 2.723c-.544.768-1.002 1.334-1.37 1.696a9.45 9.45 0 0 1-1.003.874c-.299.22-.527.313-.685.279a20.288 20.288 0 0 1-.449-.101 1.713 1.713 0 0 1-.593-.621c-.15-.262-.25-.591-.303-.988a10.468 10.468 0 0 1-.092-1.026c-.008-.287-.005-.692.013-1.216.019-.524.027-.878.027-1.064 0-.641.013-1.338.039-2.09.026-.75.048-1.346.066-1.785.018-.439.026-.903.026-1.393s-.03-.874-.092-1.153a3.838 3.838 0 0 0-.276-.81 1.382 1.382 0 0 0-.54-.608 3.117 3.117 0 0 0-.884-.342c-.932-.203-2.118-.312-3.56-.33-3.27-.033-5.37.17-6.302.609-.37.185-.703.439-1.002.76-.317.371-.36.574-.132.607 1.055.152 1.802.515 2.241 1.09l.158.303c.124.22.247.608.37 1.166.123.557.202 1.173.237 1.848.088 1.233.088 2.289 0 3.167a36.305 36.305 0 0 1-.25 2.051c-.08.49-.198.887-.357 1.19-.158.305-.263.49-.316.558a.448.448 0 0 1-.132.126 2.048 2.048 0 0 1-.712.127c-.246 0-.545-.118-.896-.355a6.239 6.239 0 0 1-1.095-.975c-.378-.414-.804-.992-1.279-1.735a29.941 29.941 0 0 1-1.476-2.634l-.422-.735a62.238 62.238 0 0 1-1.08-2.064 39.048 39.048 0 0 1-1.214-2.622 1.678 1.678 0 0 0-.633-.81l-.132-.076a1.829 1.829 0 0 0-.421-.216 2.886 2.886 0 0 0-.607-.164l-7.225.05c-.738 0-1.239.16-1.503.482l-.105.152c-.053.084-.08.22-.08.405 0 .186.053.414.159.684a82.191 82.191 0 0 0 3.44 6.89c1.24 2.212 2.317 3.993 3.23 5.344a63.128 63.128 0 0 0 2.796 3.824c.949 1.2 1.577 1.968 1.885 2.305.307.338.55.591.725.76l.66.608c.421.405 1.04.89 1.858 1.456a31.921 31.921 0 0 0 2.716 1.673c.994.548 2.15.995 3.468 1.341 1.318.347 2.601.486 3.85.419h3.032c.615-.051 1.08-.237 1.398-.558l.105-.127c.07-.1.136-.257.197-.468.062-.21.092-.443.092-.696-.018-.726.04-1.38.171-1.963.132-.582.282-1.021.45-1.317a3.25 3.25 0 0 1 .566-.747c.21-.202.36-.325.449-.367.087-.043.157-.072.21-.089.422-.135.919-.004 1.49.393a8.616 8.616 0 0 1 1.61 1.47 45.616 45.616 0 0 0 1.805 1.962c.704.726 1.319 1.266 1.846 1.621l.527.304c.352.203.81.389 1.372.557.561.17 1.053.212 1.476.127l6.75-.101c.668 0 1.187-.106 1.556-.317.369-.21.588-.444.659-.696.07-.254.074-.54.013-.862-.062-.32-.124-.544-.185-.671Z" fill="#E5BE5A"/></svg>