<svg width="32" height="37" fill="none" xmlns="http://www.w3.org/2000/svg"><path d="m9.61 31 2.97-2.015a1.707 1.707 0 0 1 1.325-.252c2.673.6 5.468.255 7.924-.977a12.173 12.173 0 0 0 5.587-5.802 12.471 12.471 0 0 0 .803-8.083 12.293 12.293 0 0 0-4.335-6.821 11.92 11.92 0 0 0-7.572-2.57 11.932 11.932 0 0 0-7.49 2.806 12.31 12.31 0 0 0-4.127 6.954 12.466 12.466 0 0 0 1.047 8.054 1.775 1.775 0 0 1-.205 1.96 1.728 1.728 0 0 1-1.19.616 1.694 1.694 0 0 1-1.266-.436 1.75 1.75 0 0 1-.41-.553 16.027 16.027 0 0 1-1.367-10.262 15.834 15.834 0 0 1 5.178-8.913A15.349 15.349 0 0 1 15.975.98c3.487-.12 6.91.96 9.719 3.066a15.785 15.785 0 0 1 5.756 8.538c.921 3.425.68 7.065-.684 10.332a15.682 15.682 0 0 1-6.83 7.675A15.269 15.269 0 0 1 13.9 32.302l-5.057 3.433a1.703 1.703 0 0 1-2.434-.558 1.776 1.776 0 0 1-.244-.9v-6.584c0-.465.181-.91.504-1.24a1.707 1.707 0 0 1 1.218-.513c.457 0 .895.185 1.218.514.323.329.504.774.504 1.24V31Zm11.513-12.412a1.694 1.694 0 0 1 1.316.096 1.729 1.729 0 0 1 .863 1.014 1.783 1.783 0 0 1-.094 1.338 1.748 1.748 0 0 1-.996.88l-2.584.876a1.693 1.693 0 0 1-1.762-.424l-6.89-7.012a1.784 1.784 0 0 1-.417-1.793l.862-2.63c.144-.441.455-.806.863-1.014a1.695 1.695 0 0 1 1.316-.096c.433.147.792.463.996.88.204.415.238.897.094 1.338l-.525 1.602 5.384 5.48 1.574-.535Z" fill="#E5BE5A"/></svg>